<?xml version="1.0" encoding="utf-8"?>
<!-- Generator: Adobe Illustrator 19.2.1, SVG Export Plug-In . SVG Version: 6.00 Build 0)  -->
<svg version="1.1" id="Layer_1" xmlns="http://www.w3.org/2000/svg" xmlns:xlink="http://www.w3.org/1999/xlink" x="0px" y="0px"
	 viewBox="0 0 1169 196" enable-background="new 0 0 1169 196" xml:space="preserve">
<g>
	<path fill="none" stroke="#FFFFFF" stroke-width="11.3483" d="M1028.8,69.3c0-5.3,4.3-9.6,9.6-9.6h62.4c5.3,0,9.6,4.3,9.6,9.6v113
		h40.9v-143c0-11.3-9.1-20.4-20.4-20.4h-122.6c-11.3,0-20.4,9.2-20.4,20.4v143h40.9V69.3z"/>
	<path fill="none" stroke="#FFFFFF" stroke-width="11.3483" d="M1090.1,121c0,11.3-9.2,20.4-20.4,20.4c-11.3,0-20.4-9.1-20.4-20.4
		c0-11.3,9.1-20.5,20.4-20.5C1081,100.5,1090.1,109.7,1090.1,121z"/>
	<path fill="none" stroke="#FFFFFF" stroke-width="11.3483" d="M906.8,141.4H793.9v40.9h143c11.3,0,20.4-9.2,20.4-20.5v-143h-143
		v40.9h102.1v72.1C916.5,137.1,912.2,141.4,906.8,141.4z"/>
	<path fill="none" stroke="#FFFFFF" stroke-width="11.3483" d="M599.9,13.7v168.6h40.9V54 M635.6,59.7h77.2c5.3,0,9.6,4.3,9.6,9.6
		v113h40.9v-143c0-11.3-9.1-20.4-20.4-20.4H594.7"/>
	<path fill="none" stroke="#FFFFFF" stroke-width="11.3483" d="M528.3,131.8c0,5.3-4.3,9.7-9.6,9.7h-62.3c-5.5,0-9.8-4.3-9.8-9.7
		V18.8h-40.8v143c0,11.3,9.2,20.5,20.5,20.5h122.5c11.3,0,20.5-9.2,20.5-20.5v-143h-40.9V131.8z"/>
	<path fill="none" stroke="#FFFFFF" stroke-width="11.3483" d="M252.5,69.3c0-5.3,4.3-9.6,9.6-9.6h112.9V18.8H232
		c-11.3,0-20.5,9.2-20.5,20.4v143h40.9V69.3z"/>
	<path fill="none" stroke="#FFFFFF" stroke-width="11.3483" d="M334.3,121c0,11.3-9.2,20.4-20.5,20.4c-11.3,0-20.5-9.1-20.5-20.4
		c0-11.3,9.2-20.5,20.5-20.5C325.1,100.5,334.3,109.7,334.3,121z"/>
	<path fill="none" stroke="#FFFFFF" stroke-width="11.3483" d="M58.4,69.3c0-5.3,4.3-9.6,9.7-9.6h62.4c5.3,0,9.6,4.3,9.6,9.6v113
		H181v-143c0-11.3-9.2-20.4-20.5-20.4H38c-11.3,0-20.4,9.2-20.4,20.4v143h40.8V69.3z"/>
	<path fill="none" stroke="#FFFFFF" stroke-width="11.3483" d="M119.7,121c0,11.3-9.1,20.4-20.4,20.4c-11.3,0-20.5-9.1-20.5-20.4
		c0-11.3,9.2-20.5,20.5-20.5C110.5,100.5,119.7,109.7,119.7,121z"/>
</g>
</svg>
