<?xml version="1.0" encoding="utf-8"?>
<!-- Generator: Adobe Illustrator 24.1.2, SVG Export Plug-In . SVG Version: 6.00 Build 0)  -->
<svg version="1.1" id="afunja-symbols" xmlns="http://www.w3.org/2000/svg" xmlns:xlink="http://www.w3.org/1999/xlink" x="0px"
	 y="0px" viewBox="0 0 600 190" style="enable-background:new 0 0 600 190;" xml:space="preserve">
<style type="text/css">
	.st0{fill:#FFFFFF;}
</style>
<g>
	<path class="st0" d="M13.6,183.9l-3.2-0.1l0-141.2l9.9-40.7v102.3l0.1,0.1l0,0.2c0.2,7.9,1.8,14.9,4.8,20.9c3,6,6.6,9,10.8,9.3
		l0.4,0l0,0.4c0.2,2.7,0.4,5.4,0.4,8.1c0,11.1-2.2,20.7-6.7,28.5c-2.3,3.9-5.3,6.9-9.2,9.1c-0.6,0.3-1.1,0.6-1.6,0.9
		c-0.6,0.3-1.1,0.7-1.7,1C17,183.2,15.8,183.6,13.6,183.9z M11.4,182.8l2.1,0.1c2-0.3,3.1-0.6,3.7-0.9c0.6-0.3,1.1-0.6,1.6-0.9
		c0.6-0.3,1.1-0.7,1.7-1c3.8-2.1,6.6-5,8.8-8.7c4.3-7.7,6.5-17.1,6.5-28c0-2.5-0.2-5.1-0.4-7.6c-4.4-0.5-8.1-3.7-11.2-9.8
		c-3.1-6-4.7-13.1-4.9-21.1l-0.1-0.1V10.3l-7.9,32.5V182.8z"/>
	<path class="st0" d="M29.2,86.9c-1.9,0-3.6-0.7-5-2.3c-0.5-0.6-0.9-1.2-1.4-2c-0.4-1-0.7-2.1-0.7-3.2s0.2-2.2,0.6-3.2
		c0.4-0.8,0.8-1.5,1.4-2.1c1.4-1.5,3-2.2,5-2.3c0,0,0,0,0,0c2,0,3.6,0.7,5,2.3c1.3,1.4,2,3.3,2,5.3c0,2-0.7,3.8-2,5.2
		C32.8,86.2,31.1,86.9,29.2,86.9z M29.2,72.8c-1.7,0.1-3,0.7-4.2,2c-0.4,0.5-0.8,1.2-1.2,1.9c-0.3,0.8-0.5,1.7-0.5,2.8
		s0.2,2,0.6,2.8c0.4,0.7,0.8,1.2,1.2,1.8c1.2,1.3,2.6,1.9,4.2,1.9c1.6,0,3-0.6,4.2-1.9c1.2-1.3,1.8-2.8,1.8-4.6
		c0-1.8-0.6-3.4-1.8-4.7C32.2,73.4,30.8,72.8,29.2,72.8z"/>
	<path class="st0" d="M50.8,183.9h-0.5V89.2h22.9v8.1h-13v6.9l0.1,0.1l0,0.2c0.2,8,1.8,15,4.8,20.9c3,6.1,6.6,9.1,10.8,9.4l0.4,0
		l0.1,0.7c0.2,2.6,0.4,5.1,0.4,7.8c0,11.2-2.2,20.6-6.7,28.6c-2.4,4-5.4,6.9-9.2,9c-1.1,0.7-2.2,1.3-3.3,1.9c-0.7,0.4-2,0.7-4.2,1.1
		L50.8,183.9z M51.3,182.9h2.1c2-0.3,3.2-0.6,3.8-0.9c1.1-0.6,2.2-1.2,3.3-1.9c3.7-2,6.6-4.8,8.8-8.6c4.4-7.9,6.5-17.1,6.5-28.1
		c0-2.5-0.2-5-0.4-7.5c-4.4-0.5-8.1-3.7-11.2-9.9c-3.1-5.9-4.7-13-4.9-21.1l-0.1-0.1v-8.3h13v-6.1H51.3V182.9z"/>
	<path class="st0" d="M73.2,83.8H50.3v-8.1h22.9V83.8z M51.3,82.8h20.9v-6.1H51.3V82.8z"/>
	<path class="st0" d="M73.2,69.6H50.3l0-27l9.9-40.7v59.7h13V69.6z M51.3,68.6h20.9v-6h-13V10.3l-7.9,32.5V68.6z"/>
	<path class="st0" d="M109,86.9c-1.9,0-3.6-0.8-5-2.3c-0.7-0.8-1.1-1.4-1.4-2.1c-0.4-1-0.6-2-0.6-3.2c0-1.2,0.2-2.3,0.7-3.1
		c0.3-0.9,0.8-1.6,1.4-2.2c1.2-1.5,3-2.2,5-2.2c1.9,0,3.6,0.8,5,2.3c1.4,1.5,2.1,3.3,2.1,5.3c0,2-0.7,3.8-2.1,5.3
		C112.6,86.2,110.9,86.9,109,86.9z M109,72.7c-1.7,0-3.1,0.7-4.2,1.9c-0.5,0.5-0.9,1.1-1.2,1.9c-0.4,0.8-0.6,1.7-0.6,2.7
		c0,1,0.2,2,0.6,2.8c0.3,0.6,0.6,1.2,1.2,1.9c1.1,1.2,2.6,1.9,4.2,1.9c1.6,0,3-0.6,4.2-1.9c1.3-1.4,1.9-2.9,1.9-4.7
		c0-1.8-0.6-3.3-1.9-4.7C112.1,73.4,110.6,72.7,109,72.7z"/>
	<path class="st0" d="M109,105.3c-0.3,0-0.6,0-0.9-0.1c-1.6-0.1-3-0.9-4.1-2.2c-0.7-0.8-1.1-1.4-1.4-2.1c-0.4-1-0.6-2-0.6-3.2
		c0-1.1,0.2-2.1,0.6-3.2c0.4-0.9,0.8-1.6,1.4-2.2c1.2-1.3,2.6-2,4.2-2.1c0.3-0.1,0.6-0.1,0.9-0.1c2,0,3.7,0.8,5,2.3
		c1.3,1.3,2,3,2.1,5.3c0,2-0.7,3.9-2.1,5.4C112.6,104.6,110.9,105.3,109,105.3z M109,91.1c-0.3,0-0.4,0-0.6,0.1l-0.1,0
		c-1.3,0.1-2.5,0.7-3.6,1.8c-0.5,0.5-0.9,1.1-1.2,1.9c-0.4,1-0.6,1.8-0.6,2.8c0,1,0.2,2,0.6,2.8c0.3,0.6,0.6,1.2,1.2,1.9
		c1,1.1,2.2,1.7,3.6,1.8l0.2,0.1c0.1,0,0.4,0,0.6,0c1.6,0,3-0.6,4.2-1.9c1.2-1.3,1.9-2.9,1.9-4.7c-0.1-2-0.7-3.5-1.9-4.6
		C112.1,91.8,110.7,91.1,109,91.1z"/>
	<path class="st0" d="M90.5,183.7H90l0-141.2l9.9-40.7v102.3l0.1,0.1l0,0.2c0.3,8.2,1.9,15.3,4.8,20.9c3,6,6.6,9.1,10.8,9.4l0.4,0
		l0,0.4c0.3,2.5,0.5,5.3,0.3,8c0,11.2-2.2,20.6-6.7,28.6c-2.2,3.9-5.3,6.9-9.1,9l-0.8,0.5c-0.9,0.5-1.7,1-2.5,1.4
		c-0.8,0.4-2.1,0.7-4.3,1.1L90.5,183.7z M91,182.7h2c1.9-0.3,3.2-0.6,3.9-0.9c0.8-0.5,1.6-0.9,2.5-1.4l0.8-0.5
		c3.7-2,6.6-4.9,8.7-8.6c4.4-7.9,6.5-17.1,6.5-28.2c0.2-2.5,0-5.1-0.3-7.4c-4.4-0.5-8.1-3.8-11.2-9.9c-3-5.7-4.6-12.8-4.9-21.1
		l-0.1-0.1V10.2L91,42.7V182.7z"/>
	<path class="st0" d="M108.9,67.9c-2,0-3.7-0.8-5-2.3c-0.6-0.6-1-1.3-1.4-2c-0.4-1-0.6-2-0.6-3.2s0.2-2.2,0.6-3.2
		c0.4-0.9,0.8-1.6,1.4-2.2c1.2-1.5,2.9-2.2,5-2.2c2,0,3.7,0.8,5,2.3c1.4,1.4,2.1,3.2,2.1,5.3c0,2.2-0.7,3.9-2.2,5.3
		C112.5,67.2,110.8,67.9,108.9,67.9z M108.9,53.8c-1.8,0-3.2,0.6-4.2,1.9c-0.5,0.5-0.9,1.1-1.2,1.9c-0.4,0.8-0.6,1.8-0.6,2.8
		s0.2,2,0.6,2.8c0.3,0.7,0.7,1.2,1.2,1.7c1.1,1.3,2.6,2,4.2,2c1.6,0,3-0.6,4.2-1.9c1.2-1.2,1.9-2.7,1.9-4.6c0-1.9-0.6-3.4-1.9-4.6
		C112,54.5,110.6,53.8,108.9,53.8z"/>
	<path class="st0" d="M156.4,83.8h-16.5v-8.7h16.5V83.8z M140.9,82.8h14.5v-6.7h-14.5V82.8z"/>
	<path class="st0" d="M156.3,98.2h-16.4v-8.7h16.4V98.2z M140.9,97.2h14.4v-6.7h-14.4V97.2z"/>
	<path class="st0" d="M129.1,183.7h-0.5l0-141.2l9.9-40.7v102.3l0.1,0.1l0,0.2c0.3,8.2,1.9,15.3,4.8,20.9c3,6,6.6,9.1,10.8,9.4
		l0.4,0l0,0.4c0.3,2.7,0.4,5.4,0.3,8c0,11.2-2.2,20.6-6.7,28.6c-2.2,3.9-5.3,6.9-9.1,9l-0.8,0.5c-0.9,0.5-1.7,1-2.5,1.4
		c-0.7,0.4-1.9,0.7-4.2,1.1L129.1,183.7z M129.6,182.7h2.1c1.3-0.2,3-0.5,3.8-0.9c0.8-0.5,1.6-0.9,2.5-1.4l0.8-0.5
		c3.7-2,6.6-4.9,8.7-8.6c4.4-7.9,6.5-17.1,6.5-28.2c0.1-2.5,0-4.9-0.3-7.4c-4.4-0.5-8.1-3.8-11.2-9.9c-3-5.7-4.6-12.8-4.9-21.1
		l-0.1-0.1V10.2l-7.9,32.5V182.7z"/>
	<path class="st0" d="M156.3,69.3h-16.4v-8.7h16.4V69.3z M140.9,68.3h14.4v-6.7h-14.4V68.3z"/>
	<path class="st0" d="M191.2,69.6h-22.9l0-27l9.9-40.7v59.7h13V69.6z M169.3,68.6h20.9v-6h-13V10.3l-7.9,32.5V68.6z"/>
	<path class="st0" d="M168.8,183.9h-0.5V89.2h22.9v8.1h-13v6.9l0.1,0.1l0,0.2c0.3,8.2,1.9,15.3,4.8,20.9c3,6.1,6.6,9.1,10.8,9.4
		l0.4,0l0,0.4c0.3,2.5,0.4,5,0.4,8.1c0,11.2-2.2,20.6-6.7,28.6c-2.2,3.9-5.3,6.9-9.1,9c-0.5,0.3-1,0.6-1.5,0.9
		c-0.6,0.4-1.2,0.7-1.8,1c-0.7,0.4-1.9,0.7-4.2,1.1L168.8,183.9z M169.3,182.9h2.2c1.3-0.2,3-0.5,3.8-0.9c0.6-0.3,1.2-0.7,1.8-1
		c0.5-0.3,1-0.6,1.5-0.9c3.7-2,6.6-4.9,8.7-8.6c4.4-7.9,6.5-17.1,6.5-28.2c0-2.8-0.1-5.2-0.4-7.5c-4.4-0.5-8.1-3.7-11.2-9.9
		c-3-5.7-4.6-12.8-4.9-21.1l-0.1-0.1v-8.3h13v-6.1h-20.9V182.9z"/>
	<path class="st0" d="M180.6,87.5c-2,0-3.7-0.7-5.1-2.3c-1.4-1.5-2.1-3.4-2.1-5.4c0-2.1,0.7-3.9,2.1-5.4c1.4-1.5,3.1-2.3,5.1-2.3
		c2,0,3.7,0.8,5.1,2.3c1.4,1.5,2.1,3.4,2.1,5.4c0,2-0.7,3.8-2.1,5.4C184.3,86.7,182.6,87.5,180.6,87.5z M180.6,73.1
		c-1.7,0-3.1,0.6-4.3,1.9c-1.2,1.3-1.9,2.9-1.9,4.8c0,1.8,0.6,3.4,1.9,4.8c1.2,1.3,2.6,1.9,4.3,1.9c1.7,0,3.1-0.7,4.3-1.9
		c1.2-1.4,1.9-3,1.9-4.8c0-1.8-0.6-3.4-1.9-4.8C183.7,73.8,182.3,73.1,180.6,73.1z"/>
	<path class="st0" d="M207.9,183.7h-0.5l0-141.2l9.9-40.7v102.3l0.1,0.1l0,0.2c0.3,8.2,1.9,15.3,4.8,20.9c3,6,6.6,9.1,10.8,9.4
		l0.4,0l0,0.4c0.3,2.7,0.4,5.4,0.3,8c0,11.2-2.2,20.6-6.7,28.6c-2.2,3.9-5.3,6.9-9.1,9l-0.8,0.5c-0.9,0.5-1.7,1-2.5,1.4
		c-0.7,0.4-1.9,0.7-4.2,1.1L207.9,183.7z M208.4,182.7h2.1c1.3-0.2,3-0.5,3.8-0.9c0.9-0.5,1.6-0.9,2.5-1.4l0.8-0.5
		c3.7-2,6.6-4.9,8.7-8.6c4.4-7.9,6.5-17.1,6.5-28.2c0.1-2.5,0-4.9-0.3-7.4c-4.4-0.5-8.1-3.8-11.2-9.9c-3-5.7-4.6-12.8-4.9-21.1
		l-0.1-0.1V10.2l-7.9,32.5V182.7z"/>
	<path class="st0" d="M225.8,108.7c-0.5,0-0.8-0.2-1.1-0.4c-1-0.5-1.8-1.8-2.7-4.1c-0.2-0.3-0.3-0.8-0.4-1.2l0-0.2
		c-0.2-0.6-0.4-1.2-0.5-2c-0.3-1.1-0.5-2.3-0.7-3.5c-0.3-1.2-0.4-2.4-0.5-3.5c-0.4-3.4-0.6-7-0.5-10.6c-0.1-3.6,0.1-7.1,0.5-10.5
		c0.1-1,0.3-2,0.4-3.1l0.1-0.5c0.2-1.2,0.4-2.4,0.7-3.5c1.2-5.1,2.7-7.6,4.7-7.6c1.9,0,3.4,2.5,4.6,7.6c1.2,4.9,1.8,10.6,1.8,17.6
		c0,6.8-0.6,12.7-1.8,17.5c-0.1,0.7-0.3,1.3-0.5,1.9c-0.1,0.5-0.2,0.9-0.4,1.4c-0.7,2.3-1.6,3.7-2.6,4.1
		C226.5,108.6,226.1,108.7,225.8,108.7z M225.8,59.2c-1,0-2.4,1.2-3.7,6.8c-0.3,1.1-0.5,2.3-0.7,3.5l-0.1,0.5c-0.2,1-0.3,2-0.4,3
		c-0.4,3.4-0.6,6.9-0.5,10.4c-0.1,3.6,0.1,7.1,0.5,10.5c0.1,1.3,0.2,2.3,0.5,3.3c0.2,1.2,0.4,2.4,0.7,3.5c0.1,0.7,0.3,1.3,0.5,1.9
		l0.1,0.2c0.1,0.3,0.2,0.7,0.3,1c0.8,2.1,1.5,3.3,2.3,3.7c0.3,0.2,0.4,0.2,0.6,0.2c0.1,0,0.3-0.1,0.5-0.2c0.6-0.3,1.4-1.1,2.2-3.6
		c0.2-0.4,0.3-0.8,0.4-1.2c0.2-0.6,0.4-1.2,0.5-1.9c1.2-4.8,1.8-10.6,1.8-17.3c0-6.8-0.6-12.6-1.8-17.4
		C228.1,60.1,226.6,59.2,225.8,59.2z"/>
	<path class="st0" d="M248.2,183.9h-0.5V89.2h22.9v8.1h-13v6.9l0.1,0.1l0,0.2c0.2,8,1.8,15,4.8,20.9c3,6.1,6.6,9.1,10.8,9.4l0.4,0
		l0.1,0.7c0.2,2.6,0.4,5.1,0.4,7.8c0,11.2-2.2,20.6-6.7,28.6c-2.4,4-5.4,6.9-9.2,9c-1.1,0.7-2.2,1.3-3.3,1.9c-0.7,0.4-2,0.7-4.2,1.1
		L248.2,183.9z M248.7,182.9h2.1c2-0.3,3.2-0.6,3.8-0.9c1.1-0.6,2.2-1.2,3.3-1.9c3.7-2,6.6-4.8,8.8-8.6c4.4-7.9,6.5-17.1,6.5-28.1
		c0-2.5-0.2-5-0.4-7.5c-4.4-0.5-8.1-3.7-11.2-9.9c-3.1-5.9-4.7-13-4.9-21.1l-0.1-0.1v-8.3h13v-6.1h-20.9V182.9z"/>
	<path class="st0" d="M270.6,83.8h-22.9v-8.1h22.9V83.8z M248.7,82.8h20.9v-6.1h-20.9V82.8z"/>
	<path class="st0" d="M270.6,69.6h-22.9l0-27l9.9-40.7v59.7h13V69.6z M248.7,68.6h20.9v-6h-13V10.3l-7.9,32.5V68.6z"/>
	<path class="st0" d="M306.4,86.9c-1.9,0-3.6-0.8-5-2.3c-0.7-0.8-1.1-1.4-1.4-2.1c-0.4-1-0.6-2-0.6-3.2c0-1.2,0.2-2.3,0.7-3.1
		c0.3-0.9,0.8-1.6,1.4-2.2c1.2-1.5,3-2.2,5-2.2c1.9,0,3.6,0.8,5,2.3c1.4,1.5,2.1,3.3,2.1,5.3c0,2-0.7,3.8-2.1,5.3
		C310,86.2,308.3,86.9,306.4,86.9z M306.4,72.7c-1.7,0-3.1,0.7-4.2,1.9c-0.5,0.5-0.9,1.1-1.2,1.9c-0.4,0.8-0.6,1.7-0.6,2.7
		c0,1,0.2,2,0.6,2.8c0.3,0.6,0.6,1.2,1.2,1.9c1.1,1.2,2.6,1.9,4.2,1.9c1.6,0,3-0.6,4.2-1.9c1.3-1.4,1.9-2.9,1.9-4.7
		c0-1.8-0.6-3.3-1.9-4.7C309.5,73.4,308,72.7,306.4,72.7z"/>
	<path class="st0" d="M306.4,105.3c-0.3,0-0.6,0-0.9-0.1c-1.6-0.1-3-0.9-4.1-2.2c-0.7-0.8-1.1-1.4-1.4-2.1c-0.4-1-0.6-2-0.6-3.2
		c0-1.1,0.2-2.1,0.6-3.2c0.4-0.9,0.8-1.6,1.4-2.2c1.2-1.3,2.6-2,4.2-2.1c0.3-0.1,0.6-0.1,0.9-0.1c2,0,3.7,0.8,5,2.3
		c1.3,1.3,2,3,2.1,5.3c0,2-0.7,3.9-2.1,5.4C310,104.6,308.3,105.3,306.4,105.3z M306.4,91.1c-0.3,0-0.4,0-0.6,0.1l-0.1,0
		c-1.3,0.1-2.5,0.7-3.6,1.8c-0.5,0.5-0.9,1.1-1.2,1.9c-0.4,1-0.6,1.8-0.6,2.8c0,1,0.2,2,0.6,2.8c0.3,0.6,0.6,1.2,1.2,1.9
		c1,1.1,2.2,1.7,3.6,1.8l0.2,0.1c0.1,0,0.4,0,0.6,0c1.6,0,3-0.6,4.2-1.9c1.2-1.3,1.9-2.9,1.9-4.7c-0.1-2-0.7-3.5-1.9-4.6
		C309.5,91.8,308.1,91.1,306.4,91.1z"/>
	<path class="st0" d="M288,183.7h-0.5l0-141.2l9.9-40.7v102.3l0.1,0.1l0,0.2c0.3,8.2,1.9,15.3,4.8,20.9c3,6,6.6,9.1,10.8,9.4l0.4,0
		l0,0.4c0.3,2.7,0.4,5.3,0.3,8c0,11.2-2.2,20.6-6.7,28.6c-2.2,3.9-5.3,6.9-9.1,9l-0.8,0.5c-0.9,0.5-1.7,1-2.5,1.4
		c-0.8,0.4-2.1,0.7-4.3,1.1L288,183.7z M288.5,182.7h2c1.9-0.3,3.2-0.6,3.9-0.9c0.8-0.5,1.6-0.9,2.5-1.4l0.8-0.5
		c3.7-2,6.6-4.9,8.7-8.6c4.4-7.9,6.5-17.1,6.5-28.2c0.1-2.5,0-4.9-0.3-7.4c-4.4-0.5-8.1-3.8-11.2-9.9c-3-5.7-4.6-12.8-4.9-21.1
		l-0.1-0.1V10.2l-7.9,32.5V182.7z"/>
	<path class="st0" d="M306.3,67.9c-2,0-3.7-0.8-5-2.3c-0.6-0.6-1-1.3-1.4-2c-0.4-1-0.6-2-0.6-3.2s0.2-2.2,0.6-3.2
		c0.4-0.9,0.8-1.6,1.4-2.2c1.2-1.5,2.9-2.2,5-2.2c2,0,3.7,0.8,5,2.3c1.4,1.4,2.1,3.2,2.1,5.3c0,2.2-0.7,3.9-2.2,5.3
		C309.9,67.2,308.2,67.9,306.3,67.9z M306.3,53.8c-1.8,0-3.2,0.6-4.2,1.9c-0.5,0.5-0.9,1.1-1.2,1.9c-0.4,0.8-0.6,1.8-0.6,2.8
		s0.2,2,0.6,2.8c0.3,0.7,0.7,1.2,1.2,1.7c1.1,1.3,2.6,2,4.2,2c1.6,0,3-0.6,4.2-1.9c1.2-1.2,1.9-2.7,1.9-4.6c0-1.9-0.6-3.4-1.9-4.6
		C309.4,54.5,308,53.8,306.3,53.8z"/>
	<path class="st0" d="M353.8,83.8h-16.5v-8.7h16.5V83.8z M338.3,82.8h14.5v-6.7h-14.5V82.8z"/>
	<path class="st0" d="M353.8,98.2h-16.5v-8.7h16.5V98.2z M338.3,97.2h14.5v-6.7h-14.5V97.2z"/>
	<path class="st0" d="M326.5,183.7H326l0-141.2l9.9-40.7v102.3l0.1,0.1l0,0.2c0.3,8.2,1.9,15.3,4.8,20.9c3,6,6.6,9.1,10.8,9.4l0.4,0
		l0,0.4c0.3,2.7,0.4,5.3,0.3,8c0,11.2-2.2,20.6-6.7,28.6c-2.2,3.9-5.3,6.9-9.1,9l-0.8,0.5c-0.9,0.5-1.7,1-2.5,1.4
		c-0.7,0.4-1.9,0.7-4.2,1.1L326.5,183.7z M327,182.7h2.1c1.3-0.2,3-0.5,3.8-0.9c0.9-0.5,1.6-0.9,2.5-1.4l0.8-0.5
		c3.7-2,6.6-4.9,8.7-8.6c4.4-7.9,6.5-17.1,6.5-28.2c0.1-2.5,0-4.9-0.3-7.4c-4.4-0.5-8.1-3.8-11.2-9.9c-3-5.7-4.6-12.8-4.9-21.1
		l-0.1-0.1V10.2L327,42.7V182.7z"/>
	<path class="st0" d="M353.8,69.3h-16.5v-8.7h16.5V69.3z M338.3,68.3h14.5v-6.7h-14.5V68.3z"/>
	<path class="st0" d="M388.6,69.6h-22.9l0-27l9.9-40.7v59.7h13V69.6z M366.7,68.6h20.9v-6h-13V10.3l-7.9,32.5V68.6z"/>
	<path class="st0" d="M366.2,183.9h-0.5V89.2h22.9v8.1h-13v6.9l0.1,0.1l0,0.2c0.3,8.2,1.9,15.3,4.8,20.9c3,6.1,6.6,9.1,10.8,9.4
		l0.4,0l0,0.4c0.3,2.5,0.4,5,0.4,8.1c0,11.2-2.2,20.6-6.7,28.6c-2.2,3.9-5.3,6.9-9.1,9c-0.5,0.3-1,0.6-1.5,0.9
		c-0.6,0.4-1.2,0.7-1.8,1c-0.7,0.4-1.9,0.7-4.2,1.1L366.2,183.9z M366.7,182.9h2.2c1.3-0.2,3-0.5,3.8-0.9c0.6-0.3,1.2-0.7,1.8-1
		c0.5-0.3,1-0.6,1.5-0.9c3.7-2,6.6-4.9,8.7-8.6c4.4-7.9,6.5-17.1,6.5-28.2c0-2.8-0.1-5.2-0.4-7.5c-4.4-0.5-8.1-3.7-11.2-9.9
		c-3-5.7-4.6-12.8-4.9-21.1l-0.1-0.1v-8.3h13v-6.1h-20.9V182.9z"/>
	<path class="st0" d="M378,87.5c-2,0-3.7-0.7-5.1-2.3c-1.4-1.5-2.1-3.4-2.1-5.4c0-2.1,0.7-3.9,2.1-5.4c1.4-1.5,3.1-2.3,5.1-2.3
		c2,0,3.7,0.8,5.1,2.3c1.4,1.5,2.1,3.4,2.1,5.4c0,2-0.7,3.8-2.1,5.4C381.7,86.7,380,87.5,378,87.5z M378,73.1
		c-1.7,0-3.1,0.6-4.3,1.9c-1.2,1.3-1.9,2.9-1.9,4.8c0,1.8,0.6,3.4,1.9,4.8c1.2,1.3,2.6,1.9,4.3,1.9c1.7,0,3.1-0.7,4.3-1.9
		c1.2-1.4,1.9-3,1.9-4.8c0-1.8-0.6-3.4-1.9-4.8C381.1,73.8,379.7,73.1,378,73.1z"/>
	<path class="st0" d="M405.3,183.7h-0.5l0-141.2l9.9-40.7v102.3l0.1,0.1l0,0.2c0.3,8.2,1.9,15.3,4.8,20.9c3,6,6.6,9.1,10.8,9.4
		l0.4,0l0,0.4c0.3,2.5,0.5,5.3,0.3,8c0,11.2-2.2,20.6-6.7,28.6c-2.2,3.9-5.3,6.9-9.1,9l-0.8,0.5c-0.9,0.5-1.7,1-2.5,1.4
		c-0.7,0.4-1.9,0.7-4.2,1.1L405.3,183.7z M405.8,182.7h2.1c1.3-0.2,3-0.5,3.8-0.9c0.8-0.5,1.6-0.9,2.5-1.4l0.8-0.5
		c3.7-2,6.6-4.9,8.7-8.6c4.4-7.9,6.5-17.1,6.5-28.2c0.2-2.5,0-5.1-0.3-7.4c-4.4-0.5-8.1-3.8-11.2-9.9c-3-5.7-4.6-12.8-4.9-21.1
		l-0.1-0.1V10.2l-7.9,32.5V182.7z"/>
	<path class="st0" d="M423.2,108.7c-0.5,0-0.8-0.2-1.1-0.4c-1-0.5-1.8-1.8-2.7-4.1c-0.2-0.3-0.3-0.8-0.4-1.2l0-0.2
		c-0.2-0.6-0.4-1.2-0.5-2c-0.3-1.1-0.5-2.3-0.7-3.5c-0.3-1-0.4-2.1-0.5-3.4c-0.4-3.4-0.6-7-0.5-10.6c-0.1-3.6,0.1-7.1,0.5-10.5
		c0.1-1.1,0.3-2,0.4-3.1l0.1-0.4c0.2-1.2,0.4-2.4,0.7-3.5c1.2-5.1,2.7-7.6,4.7-7.6c1.9,0,3.4,2.5,4.6,7.6c1.2,4.9,1.8,10.6,1.8,17.6
		c0,6.8-0.6,12.7-1.8,17.5c-0.1,0.7-0.3,1.3-0.5,1.9c-0.1,0.5-0.2,0.9-0.4,1.4c-0.7,2.3-1.6,3.7-2.6,4.1
		C423.9,108.6,423.5,108.7,423.2,108.7z M423.2,59.2c-1,0-2.4,1.2-3.7,6.8c-0.3,1.1-0.5,2.3-0.7,3.5l-0.1,0.4c-0.2,1-0.3,2-0.4,3
		c-0.4,3.4-0.6,6.9-0.5,10.4c-0.1,3.6,0.1,7.1,0.5,10.5c0.1,1.3,0.2,2.3,0.5,3.3c0.2,1.2,0.4,2.4,0.7,3.5c0.1,0.7,0.3,1.3,0.5,1.9
		l0.1,0.2c0.1,0.3,0.2,0.7,0.3,1c0.8,2.1,1.5,3.3,2.3,3.7c0.3,0.2,0.4,0.2,0.6,0.2c0.1,0,0.3-0.1,0.5-0.2c0.6-0.3,1.4-1.1,2.2-3.6
		c0.2-0.4,0.3-0.8,0.4-1.2c0.2-0.7,0.4-1.2,0.5-1.9c1.2-4.8,1.8-10.6,1.8-17.3c0-6.8-0.6-12.6-1.8-17.4
		C425.5,60.1,424,59.2,423.2,59.2z"/>
	<path class="st0" d="M463.4,86.9c-1.9,0-3.6-0.8-5-2.3c-0.7-0.8-1.1-1.4-1.4-2.1c-0.4-1-0.6-2-0.6-3.2c0-1.2,0.2-2.3,0.7-3.1
		c0.3-0.9,0.8-1.6,1.4-2.2c1.2-1.5,3-2.2,5-2.2c1.9,0,3.6,0.8,5,2.3c1.4,1.5,2.1,3.3,2.1,5.3c0,2-0.7,3.8-2.1,5.3
		C467,86.2,465.3,86.9,463.4,86.9z M463.4,72.7c-1.7,0-3.1,0.7-4.2,1.9c-0.5,0.5-0.9,1.1-1.2,1.9c-0.4,0.8-0.6,1.7-0.6,2.7
		c0,1,0.2,2,0.6,2.8c0.3,0.6,0.6,1.2,1.2,1.9c1.1,1.2,2.6,1.9,4.2,1.9c1.6,0,3-0.6,4.2-1.9c1.3-1.4,1.9-2.9,1.9-4.7
		c0-1.8-0.6-3.3-1.9-4.7C466.5,73.4,465,72.7,463.4,72.7z"/>
	<path class="st0" d="M463.4,105.3c-0.3,0-0.6,0-0.9-0.1c-1.6-0.1-3-0.9-4.1-2.2c-0.7-0.8-1.1-1.4-1.4-2.1c-0.4-1-0.6-2-0.6-3.2
		c0-1.1,0.2-2.1,0.6-3.2c0.4-0.9,0.8-1.6,1.4-2.2c1.2-1.3,2.6-2,4.2-2.1c0.3-0.1,0.6-0.1,0.9-0.1c2,0,3.7,0.8,5,2.3
		c1.4,1.4,2.1,3.2,2.1,5.3c0,2-0.7,3.8-2.1,5.3C467,104.6,465.3,105.3,463.4,105.3z M463.4,91.1c-0.3,0-0.4,0-0.6,0.1l-0.1,0
		c-1.3,0.1-2.5,0.7-3.6,1.8c-0.5,0.5-0.9,1.1-1.2,1.9c-0.4,1-0.6,1.8-0.6,2.8c0,1,0.2,2,0.6,2.8c0.3,0.6,0.6,1.2,1.2,1.9
		c1,1.1,2.2,1.7,3.6,1.8l0.2,0.1c0.1,0,0.4,0,0.6,0c1.6,0,3-0.6,4.2-1.9c1.2-1.3,1.9-2.9,1.9-4.7c0-1.9-0.6-3.4-1.9-4.6
		C466.5,91.8,465.1,91.1,463.4,91.1z"/>
	<path class="st0" d="M445,183.7h-0.5l0-141.2l9.9-40.7v102.3l0.1,0.1l0,0.2c0.3,8.2,1.9,15.3,4.8,20.9c3,6,6.6,9.1,10.8,9.4l0.4,0
		l0,0.4c0.3,2.7,0.4,5.3,0.3,8c0,11.2-2.2,20.6-6.7,28.6c-2.2,3.9-5.3,6.9-9.1,9l-0.8,0.5c-0.9,0.5-1.7,1-2.5,1.4
		c-0.8,0.4-2.1,0.7-4.3,1.1L445,183.7z M445.5,182.7h2c1.9-0.3,3.2-0.6,3.9-0.9c0.8-0.5,1.6-0.9,2.5-1.4l0.8-0.5
		c3.7-2,6.6-4.9,8.7-8.6c4.4-7.9,6.5-17.1,6.5-28.2c0.1-2.5,0-4.9-0.3-7.4c-4.4-0.5-8.1-3.8-11.2-9.9c-3-5.7-4.6-12.8-4.9-21.1
		l-0.1-0.1V10.2l-7.9,32.5V182.7z"/>
	<path class="st0" d="M463.4,67.9c-2,0-3.7-0.8-5-2.3c-0.6-0.6-1-1.3-1.4-2c-0.4-1-0.6-2-0.6-3.2s0.2-2.2,0.6-3.2
		c0.4-0.9,0.8-1.6,1.4-2.2c1.2-1.5,2.9-2.2,5-2.2c2,0,3.7,0.8,5,2.3c1.4,1.4,2.1,3.2,2.1,5.3c0,2-0.7,3.8-2.1,5.3
		C467,67.2,465.3,67.9,463.4,67.9z M463.4,53.8c-1.8,0-3.2,0.6-4.2,1.9c-0.5,0.5-0.9,1.1-1.2,1.9c-0.4,0.8-0.6,1.8-0.6,2.8
		s0.2,2,0.6,2.8c0.3,0.7,0.7,1.2,1.2,1.7c1.1,1.3,2.6,2,4.2,2c1.6,0,3-0.6,4.2-1.9c1.2-1.2,1.9-2.8,1.9-4.6c0-1.9-0.6-3.4-1.9-4.6
		C466.5,54.5,465.1,53.8,463.4,53.8z"/>
	<path class="st0" d="M510.8,83.8h-16.5v-8.7h16.5V83.8z M495.3,82.8h14.5v-6.7h-14.5V82.8z"/>
	<path class="st0" d="M510.8,98.2h-16.5v-8.7h16.5V98.2z M495.3,97.2h14.5v-6.7h-14.5V97.2z"/>
	<path class="st0" d="M483.5,183.7H483l0-141.2l9.9-40.7v102.3l0.1,0.1l0,0.2c0.3,8.2,1.9,15.3,4.8,20.9c3,6,6.6,9.1,10.8,9.4l0.4,0
		l0,0.4c0.3,2.7,0.4,5.3,0.3,8c0,11.2-2.2,20.6-6.7,28.6c-2.2,3.9-5.3,6.9-9.1,9l-0.8,0.5c-0.9,0.5-1.7,1-2.5,1.4
		c-0.7,0.4-1.9,0.7-4.2,1.1L483.5,183.7z M484,182.7h2.1c1.3-0.2,3-0.5,3.8-0.9c0.9-0.5,1.6-0.9,2.5-1.4l0.8-0.5
		c3.7-2,6.6-4.9,8.7-8.6c4.4-7.9,6.5-17.1,6.5-28.2c0.1-2.5,0-4.9-0.3-7.4c-4.4-0.5-8.1-3.8-11.2-9.9c-3-5.7-4.6-12.8-4.9-21.1
		l-0.1-0.1V10.2L484,42.7V182.7z"/>
	<path class="st0" d="M510.8,69.3h-16.5v-8.7h16.5V69.3z M495.3,68.3h14.5v-6.7h-14.5V68.3z"/>
	<path class="st0" d="M545.6,69.6h-22.9l0-27l9.9-40.7v59.7h13V69.6z M523.7,68.6h20.9v-6h-13V10.3l-7.9,32.5V68.6z"/>
	<path class="st0" d="M523.2,183.9h-0.5V89.2h22.9v8.1h-13v6.9l0.1,0.1l0,0.2c0.3,8.2,1.9,15.3,4.8,20.9c3,6.1,6.6,9.1,10.8,9.4
		l0.4,0l0,0.4c0.3,2.5,0.4,5,0.4,8.1c0,11.2-2.2,20.6-6.7,28.6c-2.2,3.9-5.3,6.9-9.1,9c-0.5,0.3-1,0.6-1.5,0.9
		c-0.6,0.4-1.2,0.7-1.8,1c-0.7,0.4-1.9,0.7-4.2,1.1L523.2,183.9z M523.7,182.9h2.2c1.3-0.2,3-0.5,3.8-0.9c0.6-0.3,1.2-0.7,1.8-1
		c0.5-0.3,1-0.6,1.5-0.9c3.7-2,6.6-4.9,8.7-8.6c4.4-7.9,6.5-17.1,6.5-28.2c0-2.8-0.1-5.2-0.4-7.5c-4.4-0.5-8.1-3.7-11.2-9.9
		c-3-5.7-4.6-12.8-4.9-21.1l-0.1-0.1v-8.3h13v-6.1h-20.9V182.9z"/>
	<path class="st0" d="M535,87.5c-2,0-3.7-0.7-5.1-2.3c-1.4-1.5-2.1-3.4-2.1-5.4c0-2.1,0.7-3.9,2.1-5.4c1.4-1.5,3.1-2.3,5.1-2.3
		c2,0,3.7,0.8,5.1,2.3c1.4,1.5,2.1,3.4,2.1,5.4c0,2-0.7,3.8-2.1,5.4C538.7,86.7,537,87.5,535,87.5z M535,73.1
		c-1.7,0-3.1,0.6-4.3,1.9c-1.2,1.3-1.9,2.9-1.9,4.8c0,1.8,0.6,3.4,1.9,4.8c1.2,1.3,2.6,1.9,4.3,1.9c1.7,0,3.1-0.7,4.3-1.9
		c1.2-1.4,1.9-3,1.9-4.8c0-1.8-0.6-3.4-1.9-4.8C538.1,73.8,536.7,73.1,535,73.1z"/>
	<path class="st0" d="M562.3,183.7h-0.5l0-141.2l9.9-40.7v102.3l0.1,0.1l0,0.2c0.3,8.2,1.9,15.3,4.8,20.9c3,6,6.6,9.1,10.8,9.4
		l0.4,0l0,0.4c0.3,2.5,0.5,5.3,0.3,8c0,11.2-2.2,20.6-6.7,28.6c-2.2,3.9-5.3,6.9-9.1,9l-0.8,0.5c-0.9,0.5-1.7,1-2.5,1.4
		c-0.7,0.4-1.9,0.7-4.2,1.1L562.3,183.7z M562.8,182.7h2.1c1.3-0.2,3-0.5,3.8-0.9c0.8-0.5,1.6-0.9,2.5-1.4l0.8-0.5
		c3.7-2,6.6-4.9,8.7-8.6c4.4-7.9,6.5-17.1,6.5-28.2c0.2-2.5,0-5.1-0.3-7.4c-4.4-0.5-8.1-3.8-11.2-9.9c-3-5.7-4.6-12.8-4.9-21.1
		l-0.1-0.1V10.2l-7.9,32.5V182.7z"/>
	<path class="st0" d="M580.2,108.7c-0.5,0-0.8-0.2-1.1-0.4c-1-0.5-1.8-1.8-2.7-4.1c-0.2-0.3-0.3-0.8-0.4-1.2l0-0.2
		c-0.2-0.6-0.4-1.2-0.5-2c-0.3-1.1-0.5-2.3-0.7-3.5c-0.3-1-0.4-2.1-0.5-3.4c-0.4-3.4-0.6-7-0.5-10.6c-0.1-3.6,0.1-7.1,0.5-10.5
		c0.1-1.1,0.3-2,0.4-3.1l0.1-0.4c0.2-1.2,0.4-2.4,0.7-3.5c1.2-5.1,2.7-7.6,4.7-7.6c1.9,0,3.4,2.5,4.6,7.6c1.2,4.9,1.8,10.6,1.8,17.6
		c0,6.8-0.6,12.7-1.8,17.5c-0.1,0.7-0.3,1.3-0.5,1.9c-0.1,0.5-0.2,0.9-0.4,1.4c-0.7,2.3-1.6,3.7-2.6,4.1
		C580.9,108.6,580.5,108.7,580.2,108.7z M580.2,59.2c-1,0-2.4,1.2-3.7,6.8c-0.3,1.1-0.5,2.3-0.7,3.5l-0.1,0.4c-0.2,1-0.3,2-0.4,3
		c-0.4,3.4-0.6,6.9-0.5,10.4c-0.1,3.6,0.1,7.1,0.5,10.5c0.1,1.3,0.2,2.3,0.5,3.3c0.2,1.2,0.4,2.4,0.7,3.5c0.1,0.7,0.3,1.3,0.5,1.9
		l0.1,0.2c0.1,0.3,0.2,0.7,0.3,1c0.8,2.1,1.5,3.3,2.3,3.7c0.3,0.2,0.4,0.2,0.6,0.2c0.1,0,0.3-0.1,0.5-0.2c0.6-0.3,1.4-1.1,2.2-3.6
		c0.2-0.4,0.3-0.8,0.4-1.2c0.2-0.7,0.4-1.2,0.5-1.9c1.2-4.8,1.8-10.6,1.8-17.3c0-6.8-0.6-12.6-1.8-17.4
		C582.5,60.1,581,59.2,580.2,59.2z"/>
</g>
</svg>
