<?xml version="1.0" encoding="utf-8"?>
<!-- Generator: Adobe Illustrator 24.2.3, SVG Export Plug-In . SVG Version: 6.00 Build 0)  -->
<svg version="1.1" id="Layer_2_1_" xmlns="http://www.w3.org/2000/svg" xmlns:xlink="http://www.w3.org/1999/xlink" x="0px" y="0px"
	 viewBox="0 0 600 55" style="enable-background:new 0 0 600 55;" xml:space="preserve">
<style type="text/css">
	.st0{fill:none;stroke:#999999;stroke-miterlimit:10;}
</style>
<g>
	<path class="st0" d="M34.2,27.6c0,3.3-0.4,6.2-1.2,8.9c-0.8,2.6-2,4.9-3.7,6.8c-1.6,1.9-3.7,3.3-6.2,4.3s-5.3,1.5-8.6,1.5h-2.8
		c-1.9,0-3.3-0.6-4.4-1.8s-1.6-2.6-1.6-4.2c0-1.6,0.5-3,1.6-4.2s2.5-1.8,4.4-1.8h1.8c1.4,0,2.7-0.1,3.8-0.4c1.1-0.3,2-0.8,2.8-1.4
		c0.7-0.7,1.3-1.6,1.7-2.7c0.4-1.1,0.6-2.5,0.6-4.2V12c0-1.9,0.6-3.4,1.8-4.4c1.2-1,2.6-1.5,4.1-1.5s3,0.5,4.1,1.5
		c1.2,1,1.8,2.5,1.8,4.4C34.2,12,34.2,27.6,34.2,27.6z"/>
	<path class="st0" d="M48.7,27.4c0-3,0.6-5.9,1.7-8.6c1.2-2.7,2.7-5,4.7-7s4.3-3.6,7-4.7c2.7-1.2,5.5-1.7,8.6-1.7s5.9,0.6,8.6,1.7
		c2.7,1.2,5,2.7,7,4.7s3.6,4.3,4.7,7c1.2,2.7,1.7,5.5,1.7,8.6S92.1,33.3,91,36c-1.2,2.7-2.7,5-4.7,7s-4.3,3.5-7,4.7
		s-5.5,1.7-8.6,1.7s-5.9-0.6-8.6-1.7c-2.7-1.2-5-2.7-7-4.7s-3.5-4.3-4.7-7C49.2,33.3,48.7,30.4,48.7,27.4z M60.7,27.5
		c0,1.4,0.3,2.7,0.8,3.9c0.5,1.2,1.2,2.3,2.1,3.2c0.9,0.9,2,1.6,3.2,2.1s2.5,0.8,3.9,0.8s2.7-0.3,3.9-0.8s2.3-1.2,3.2-2.1
		c0.9-0.9,1.6-2,2.1-3.2c0.5-1.2,0.8-2.5,0.8-3.9s-0.3-2.7-0.8-3.9c-0.5-1.2-1.2-2.3-2.1-3.2c-0.9-0.9-1.9-1.6-3.2-2.1
		c-1.2-0.5-2.5-0.8-3.9-0.8s-2.7,0.3-3.9,0.8c-1.2,0.5-2.3,1.2-3.2,2.1c-0.9,0.9-1.6,1.9-2.1,3.2C61,24.8,60.7,26.1,60.7,27.5z"/>
	<path class="st0" d="M134,27.6c0,3.3-0.4,6.2-1.2,8.9c-0.8,2.6-2,4.9-3.7,6.8c-1.6,1.9-3.7,3.3-6.2,4.3s-5.3,1.5-8.6,1.5h-2.8
		c-1.9,0-3.3-0.6-4.4-1.8s-1.6-2.6-1.6-4.2c0-1.6,0.5-3,1.6-4.2s2.5-1.8,4.4-1.8h1.8c1.4,0,2.7-0.1,3.8-0.4c1.1-0.3,2-0.8,2.8-1.4
		c0.7-0.7,1.3-1.6,1.7-2.7c0.4-1.1,0.6-2.5,0.6-4.2V12c0-1.9,0.6-3.4,1.8-4.4c1.2-1,2.6-1.5,4.1-1.5c1.5,0,3,0.5,4.1,1.5
		c1.2,1,1.8,2.5,1.8,4.4L134,27.6L134,27.6z"/>
	<path class="st0" d="M148.4,27.4c0-3,0.6-5.9,1.7-8.6c1.2-2.7,2.7-5,4.7-7s4.3-3.6,7-4.7c2.7-1.2,5.5-1.7,8.6-1.7s5.9,0.6,8.6,1.7
		c2.7,1.2,5,2.7,7,4.7s3.6,4.3,4.7,7c1.2,2.7,1.7,5.5,1.7,8.6s-0.6,5.9-1.7,8.6c-1.2,2.7-2.7,5-4.7,7s-4.3,3.5-7,4.7
		s-5.5,1.7-8.6,1.7s-5.9-0.6-8.6-1.7c-2.7-1.2-5-2.7-7-4.7s-3.5-4.3-4.7-7C149,33.3,148.4,30.4,148.4,27.4z M160.5,27.5
		c0,1.4,0.3,2.7,0.8,3.9c0.5,1.2,1.2,2.3,2.1,3.2c0.9,0.9,2,1.6,3.2,2.1s2.5,0.8,3.9,0.8s2.7-0.3,3.9-0.8s2.3-1.2,3.2-2.1
		c0.9-0.9,1.6-2,2.1-3.2c0.5-1.2,0.8-2.5,0.8-3.9s-0.3-2.7-0.8-3.9c-0.5-1.2-1.2-2.3-2.1-3.2c-0.9-0.9-1.9-1.6-3.2-2.1
		c-1.2-0.5-2.5-0.8-3.9-0.8s-2.7,0.3-3.9,0.8s-2.3,1.2-3.2,2.1s-1.6,1.9-2.1,3.2C160.8,24.8,160.5,26.1,160.5,27.5z"/>
	<path class="st0" d="M219.1,43.1c0,1.9-0.6,3.4-1.8,4.4s-2.6,1.5-4.2,1.5c-1.6,0-3-0.5-4.1-1.5c-1.2-1-1.8-2.5-1.8-4.4V12
		c0-1.9,0.6-3.4,1.8-4.4s2.6-1.5,4.1-1.5h0.3c2.1,0,3.6,0.9,4.5,2.7l10.8,16.3V12c0-1.9,0.6-3.4,1.8-4.4s2.6-1.5,4.1-1.5
		c1.6,0,3,0.5,4.2,1.5s1.8,2.5,1.8,4.4v31.1c0,1.9-0.6,3.4-1.8,4.4s-2.6,1.5-4.2,1.5c-0.8,0-1.5-0.1-2.1-0.3s-1.1-0.4-1.5-0.7
		s-0.7-0.6-1-0.9c-0.2-0.3-0.4-0.5-0.6-0.7L219,30.8L219.1,43.1L219.1,43.1z"/>
	<path class="st0" d="M281.2,40.7h-12.7l-1.8,4.6c-0.5,1.3-1.3,2.3-2.2,2.9c-0.9,0.6-2,0.9-3.1,0.9c-0.8,0-1.6-0.1-2.3-0.4
		c-0.7-0.3-1.4-0.6-2.1-1.2c-0.6-0.5-1.1-1.1-1.5-1.8s-0.5-1.4-0.5-2.3c0-0.9,0.2-1.7,0.5-2.4l14.2-31.3c0.6-1.3,1.5-2.4,2.5-3
		c1.1-0.7,2.1-1,3.2-1s2.2,0.3,3.2,1s1.8,1.7,2.3,3l13,31.3c0.3,0.7,0.5,1.5,0.5,2.4c0,0.8-0.2,1.6-0.5,2.3
		c-0.4,0.7-0.9,1.3-1.5,1.8s-1.3,0.9-2.1,1.2c-0.8,0.3-1.5,0.4-2.3,0.4c-1.1,0-2.1-0.3-3.1-0.9c-1-0.6-1.7-1.6-2.2-2.9L281.2,40.7z
		 M272.2,31.3h5.8l-2.7-7.7L272.2,31.3z"/>
	<path class="st0" d="M370.7,43.1c0,1.9-0.6,3.4-1.8,4.4c-1.2,1-2.6,1.5-4.1,1.5c-1.6,0-3-0.5-4.2-1.5s-1.8-2.5-1.8-4.4V12
		c0-1.9,0.6-3.4,1.8-4.4c1.2-1,2.6-1.5,4.2-1.5s3,0.5,4.1,1.5c1.2,1,1.8,2.5,1.8,4.4V43.1z"/>
	<path class="st0" d="M417.5,35.3c0,9.2-4.5,13.8-13.4,13.8h-11.8c-3.8,0-5.7-1.9-5.7-5.8v-0.2c0.1-4,2-6,5.8-6h12.4
		c0.8,0,1.4-0.2,1.8-0.7s0.6-0.9,0.6-1.5c0-0.5-0.2-1-0.6-1.5s-1-0.7-1.8-0.7h-6.1c-8.4,0-12.7-4.3-12.7-13
		c0-9.2,4.5-13.8,13.5-13.8h9.5c3.8,0,5.7,1.9,5.7,5.8V12c-0.1,4-2,6-5.8,6h-10.2c-0.8,0-1.4,0.2-1.8,0.7s-0.6,0.9-0.6,1.5
		c0,0.5,0.2,1,0.6,1.5s1,0.7,1.8,0.7h6.1C413.3,22.3,417.5,26.6,417.5,35.3z"/>
	<path class="st0" d="M463.7,35.3c0,9.2-4.5,13.8-13.4,13.8h-11.8c-3.8,0-5.7-1.9-5.7-5.8v-0.2c0.1-4,2-6,5.8-6H451
		c0.8,0,1.4-0.2,1.8-0.7s0.6-0.9,0.6-1.5c0-0.5-0.2-1-0.6-1.5s-1-0.7-1.8-0.7h-6.1c-8.4,0-12.7-4.3-12.7-13
		c0-9.2,4.5-13.8,13.5-13.8h9.5c3.8,0,5.7,1.9,5.7,5.8V12c-0.1,4-2,6-5.8,6h-10.2c-0.8,0-1.4,0.2-1.8,0.7s-0.6,0.9-0.6,1.5
		c0,0.5,0.2,1,0.6,1.5s1,0.7,1.8,0.7h6.1C459.5,22.3,463.7,26.6,463.7,35.3z"/>
	<path class="st0" d="M490.6,43.1c0,1.9-0.6,3.4-1.8,4.4c-1.2,1-2.6,1.5-4.1,1.5c-1.6,0-3-0.5-4.2-1.5s-1.8-2.5-1.8-4.4V12
		c0-1.9,0.6-3.4,1.8-4.4c1.2-1,2.6-1.5,4.2-1.5s3,0.5,4.1,1.5c1.2,1,1.8,2.5,1.8,4.4V43.1z"/>
	<path class="st0" d="M518.1,43.1c0,1.9-0.6,3.4-1.8,4.4s-2.6,1.5-4.2,1.5c-1.6,0-3-0.5-4.1-1.5c-1.2-1-1.8-2.5-1.8-4.4V12
		c0-1.9,0.6-3.4,1.8-4.4c1.2-1,2.6-1.5,4.1-1.5h0.3c2.1,0,3.6,0.9,4.5,2.7l10.8,16.3V12c0-1.9,0.6-3.4,1.8-4.4s2.6-1.5,4.1-1.5
		c1.6,0,3,0.5,4.2,1.5s1.8,2.5,1.8,4.4v31.1c0,1.9-0.6,3.4-1.8,4.4s-2.6,1.5-4.2,1.5c-0.8,0-1.5-0.1-2.1-0.3s-1.1-0.4-1.5-0.7
		s-0.7-0.6-1-0.9s-0.4-0.5-0.6-0.7L518,30.8v12.3H518.1z"/>
	<path class="st0" d="M580.1,40.7h-12.7l-1.8,4.6c-0.5,1.3-1.3,2.3-2.2,2.9c-0.9,0.6-2,0.9-3.1,0.9c-0.8,0-1.6-0.1-2.3-0.4
		c-0.7-0.3-1.4-0.6-2.1-1.2c-0.6-0.5-1.1-1.1-1.5-1.8s-0.5-1.4-0.5-2.3c0-0.9,0.2-1.7,0.5-2.4l14.2-31.3c0.6-1.3,1.5-2.4,2.5-3
		c1.1-0.7,2.1-1,3.2-1s2.2,0.3,3.2,1s1.8,1.7,2.3,3l13,31.3c0.3,0.7,0.5,1.5,0.5,2.4c0,0.8-0.2,1.6-0.5,2.3
		c-0.4,0.7-0.9,1.3-1.5,1.8s-1.3,0.9-2.1,1.2s-1.5,0.4-2.3,0.4c-1.1,0-2.1-0.3-3.1-0.9c-1-0.6-1.7-1.6-2.2-2.9L580.1,40.7z
		 M571.1,31.3h5.8l-2.7-7.7L571.1,31.3z"/>
</g>
</svg>
